<svg width="60" height="76" viewBox="0 0 60 76" fill="none" xmlns="http://www.w3.org/2000/svg">
<path d="M18.4501 66.0711C18.4601 65.8411 18.27 65.4811 18.29 65.2511C18.3 65.0211 18.26 64.7911 18.27 64.5611C18.28 64.3311 18.4101 64.1111 18.4301 63.8711C18.4401 63.6411 18.37 63.5011 18.38 63.2611C18.18 63.1811 18.11 63.0211 17.89 62.9411C17.69 62.8611 17.46 62.8411 17.25 62.7611C17.04 62.6811 16.86 62.5311 16.65 62.4511C16.44 62.3711 16.2801 62.1811 16.0701 62.1011C15.8601 62.0211 15.6501 61.9511 15.4401 61.8711C15.2301 61.7911 15.0201 61.7211 14.8101 61.6411C14.6001 61.5611 14.3101 61.6811 14.1001 61.6011C13.8701 61.5211 13.61 61.5111 13.38 61.4211C13.15 61.3311 12.9201 61.2411 12.7001 61.1411C12.4801 61.0411 12.37 60.6811 12.15 60.5811C11.93 60.4811 11.5901 60.6111 11.3701 60.5011C11.1501 60.3911 10.98 60.1811 10.77 60.0711C10.56 59.9511 10.3301 59.8611 10.1201 59.7311C9.91012 59.6111 9.80009 59.3211 9.59009 59.1911C9.38009 59.0611 9.10002 59.0511 8.90002 58.9211C8.70002 58.7911 8.56011 58.5611 8.36011 58.4211C8.16011 58.2811 7.95001 58.1611 7.76001 58.0111C7.57001 57.8611 7.38006 57.7111 7.19006 57.5511C7.00006 57.4011 6.7801 57.2811 6.6001 57.1211C6.4201 56.9611 6.22004 56.8211 6.04004 56.6511C5.86004 56.4911 5.63008 56.3711 5.46008 56.2011C5.29008 56.0311 5.26009 55.7111 5.09009 55.5411C4.92009 55.3611 4.74008 55.2111 4.58008 55.0311C4.42008 54.8511 4.16 54.7511 4 54.5711C3.84 54.3811 3.58005 54.2811 3.43005 54.0811C3.28005 53.8911 3.32005 53.5511 3.18005 53.3511C3.04005 53.1511 2.94006 52.9311 2.81006 52.7211C2.68006 52.5111 2.56006 52.3011 2.44006 52.1011C2.32006 51.8911 1.97011 51.8011 1.86011 51.5911C1.75011 51.3711 1.67006 51.1411 1.56006 50.9211C1.46006 50.7011 1.48001 50.4211 1.39001 50.2011C1.29001 49.9811 1.36002 49.6911 1.27002 49.4711C1.19002 49.2411 0.800093 49.1211 0.720093 48.8911C0.650093 48.6611 0.730044 48.3811 0.670044 48.1411C0.610044 47.9111 0.380078 47.7111 0.330078 47.4711C0.280078 47.2311 0.280112 46.9811 0.240112 46.7411C0.200112 46.5011 0.360068 46.2311 0.320068 45.9911C0.290068 45.7511 0.0400195 45.5411 0.0200195 45.2911C1.95317e-05 45.0511 0.26 44.7911 0.25 44.5411C0.24 44.3011 0 44.0711 0 43.8211C0 43.5811 0.230103 43.3411 0.230103 43.1011C0.240103 42.8611 0.0100195 42.6111 0.0200195 42.3711C0.0300195 42.1311 0.100117 41.8911 0.120117 41.6511C0.140117 41.4111 0.340117 41.1911 0.370117 40.9511C0.400117 40.7111 0.0900049 40.4211 0.130005 40.1811C0.170005 39.9411 0.520068 39.7611 0.570068 39.5211C0.610068 39.2911 0.590034 39.0511 0.660034 38.8311C0.730034 38.6111 0.800015 38.3911 0.890015 38.1811C0.990015 37.9711 1.02001 37.7211 1.14001 37.5311C1.26001 37.3311 1.48011 37.2011 1.61011 37.0111C1.75011 36.8311 1.72012 36.4811 1.87012 36.3211C2.03012 36.1511 2.43011 36.2411 2.61011 36.0811C2.78011 35.9311 2.97002 35.8111 3.15002 35.6711C3.33002 35.5311 3.47003 35.3411 3.66003 35.2111C3.85003 35.0911 4.07002 35.0111 4.27002 34.9011C4.47002 34.7911 4.69002 34.7311 4.90002 34.6311C5.11002 34.5311 5.16012 34.0911 5.37012 33.9911C5.60012 33.8911 5.86009 33.8711 6.09009 33.7711C6.32009 33.6811 6.53001 33.5311 6.76001 33.4411C6.99001 33.3511 7.21006 33.2311 7.44006 33.1411C7.67006 33.0511 8.03001 33.2911 8.26001 33.2111C8.49001 33.1211 8.6201 32.7411 8.8501 32.6611C9.0801 32.5811 9.36009 32.6111 9.59009 32.5311C9.82009 32.4511 10.04 32.2911 10.27 32.2211C10.51 32.1411 10.8301 32.3311 11.0601 32.2511C11.3001 32.1811 11.52 32.0711 11.76 32.0011C12 31.9311 12.17 31.6411 12.41 31.5711C12.65 31.5011 12.9701 31.7311 13.2101 31.6611C13.4501 31.5911 13.68 31.5011 13.92 31.4411C14.15 31.3811 14.3201 31.0611 14.5601 31.0011C14.7901 30.9411 15.0901 31.1411 15.3301 31.0811C15.5701 31.0211 15.8 31.0011 16.04 30.9511C16.28 30.9011 16.4901 30.7311 16.7201 30.6811C16.9601 30.6311 17.2101 30.6911 17.4501 30.6411C17.6901 30.5911 17.8701 30.2611 18.1101 30.2211C18.3501 30.1811 18.5801 30.1111 18.8201 30.0711C19.0601 30.0311 19.3 29.9711 19.53 29.9311C19.77 29.8911 20.06 30.1811 20.3 30.1411C20.54 30.1011 20.76 29.9311 21 29.9011C21.24 29.8711 21.4901 29.9411 21.7301 29.9111C21.9701 29.8811 22.18 29.6511 22.42 29.6211C22.66 29.5911 22.91 29.6911 23.15 29.6611C23.39 29.6311 23.6101 29.3911 23.8501 29.3611C24.0901 29.3411 24.3501 29.5611 24.6001 29.5411C24.8401 29.5211 25.06 29.2411 25.3 29.2211C25.54 29.2011 25.78 29.1911 26.02 29.1711C26.26 29.1511 26.52 29.3311 26.76 29.3211C27 29.3011 27.2501 29.4211 27.4901 29.4111C27.7301 29.4011 27.9601 29.1111 28.2001 29.1011C28.4401 29.0911 28.68 29.0211 28.92 29.0111C29.16 29.0011 29.4 28.9811 29.64 28.9711C29.88 28.9611 30.1301 29.0611 30.3701 29.0611C30.6101 29.0511 30.8501 28.9411 31.0901 28.9411C31.3301 28.9311 31.5801 29.2311 31.8201 29.2211C32.0601 29.2211 32.3 29.0411 32.54 29.0411C32.78 29.0411 33.02 28.9711 33.26 28.9711C33.5 28.9711 33.7401 29.0211 33.9801 29.0211C34.2201 29.0211 34.4601 29.2311 34.7001 29.2311C34.9401 29.2311 35.18 28.9211 35.42 28.9211C35.66 28.9211 35.89 29.2811 36.13 29.2911C36.37 29.3011 36.6201 28.9311 36.8601 28.9311C37.1001 28.9411 37.3301 29.1911 37.5701 29.2011C37.8101 29.2111 38.05 29.2311 38.29 29.2411C38.53 29.2511 38.78 29.0011 39.02 29.0111C39.26 29.0211 39.5001 29.0611 39.7401 29.0811C39.9801 29.1011 40.2101 29.2911 40.4501 29.3111C40.6901 29.3311 40.93 29.3511 41.17 29.3711C41.41 29.3911 41.66 29.2811 41.9 29.3111C42.14 29.3311 42.3601 29.4811 42.6001 29.5111C42.8401 29.5411 43.0801 29.5611 43.3101 29.5911C43.5501 29.6211 43.77 29.7411 44.01 29.7811C44.25 29.8111 44.52 29.6411 44.75 29.6811C44.99 29.7211 45.2101 29.8611 45.4401 29.9011C45.6801 29.9411 45.9 30.0611 46.13 30.1111C46.36 30.1611 46.5901 30.2411 46.8201 30.2911C47.0501 30.3411 47.3601 30.0911 47.5901 30.1511C47.8201 30.2011 48.0001 30.4911 48.2301 30.5511C48.4601 30.6111 48.69 30.7011 48.92 30.7611C49.15 30.8211 49.44 30.6411 49.67 30.7111C49.9 30.7811 50.0901 30.9411 50.3201 31.0111C50.5401 31.0811 50.7401 31.2311 50.9701 31.3011C51.1901 31.3711 51.3601 31.6211 51.5801 31.6911C51.8001 31.7611 52.1301 31.5411 52.3501 31.6211C52.5701 31.7011 52.7601 31.8711 52.9801 31.9511C53.2001 32.0311 53.45 32.0511 53.67 32.1311C53.89 32.2111 54.1101 32.3011 54.3301 32.3811C54.5501 32.4611 54.81 32.4611 55.02 32.5511C55.24 32.6411 55.43 32.7911 55.65 32.8811C55.87 32.9711 56.1401 33.0211 56.3501 33.1411C56.5601 33.2611 56.7501 33.4311 56.9501 33.5711C57.1401 33.7111 57.21 34.0311 57.39 34.1811C57.58 34.3311 57.7901 34.4511 57.9701 34.6111C58.1501 34.7711 58.36 34.9011 58.53 35.0711C58.72 35.2511 58.8501 35.4511 58.9301 35.6511C59.0201 35.8711 59.1701 36.1011 59.1801 36.3411C59.1901 36.5711 58.95 36.8011 58.92 37.0311C58.89 37.2611 59.05 37.5111 59.03 37.7311C59.01 37.9611 58.75 38.2011 58.78 38.4211C58.82 38.6511 58.9501 38.8711 58.9701 39.1011C58.9901 39.3411 58.9501 39.5711 58.9501 39.8011C58.9501 40.0411 58.8901 40.2611 58.8701 40.4911C58.8501 40.7211 59.1001 40.9911 59.0701 41.2211C59.0401 41.4511 58.7301 41.6411 58.6801 41.8711C58.6401 42.1011 58.7801 42.3711 58.7201 42.6011C58.6601 42.8311 58.4301 43.0111 58.3701 43.2311C58.3101 43.4611 58.4201 43.7311 58.3501 43.9511C58.2801 44.1711 58.0201 44.3311 57.9501 44.5611C57.8801 44.7911 58.0601 45.1111 57.9801 45.3311C57.9001 45.5611 57.5301 45.6811 57.4401 45.9011C57.3501 46.1211 57.49 46.4411 57.4 46.6611C57.3 46.8811 57.1701 47.0911 57.0601 47.3011C56.9601 47.5211 56.6901 47.6511 56.5801 47.8611C56.4701 48.0711 56.4701 48.3411 56.3501 48.5511C56.2301 48.7611 56.26 49.0611 56.13 49.2611C56.01 49.4711 55.6901 49.5611 55.5601 49.7611C55.4301 49.9611 55.4 50.2311 55.27 50.4311C55.13 50.6311 54.93 50.7811 54.79 50.9811C54.65 51.1711 54.56 51.4111 54.41 51.6011C54.26 51.7911 53.94 51.8411 53.79 52.0311C53.64 52.2211 53.4701 52.3811 53.3201 52.5711C53.1601 52.7511 53.2601 53.1611 53.1001 53.3411C52.9401 53.5211 52.7701 53.6911 52.6001 53.8611C52.4301 54.0311 52.2301 54.1811 52.0601 54.3511C51.8901 54.5211 51.5501 54.5111 51.3701 54.6711C51.2001 54.8311 51.1701 55.1611 50.9901 55.3211C50.8101 55.4811 50.44 55.4211 50.25 55.5811C50.07 55.7411 49.97 55.9911 49.79 56.1411C49.61 56.2911 49.5301 56.5811 49.3501 56.7311C49.1601 56.8811 48.98 57.0311 48.79 57.1811C48.6 57.3311 48.36 57.4111 48.17 57.5511C47.98 57.6911 47.8001 57.8511 47.6101 57.9911C47.4201 58.1311 47.1401 58.1511 46.9501 58.2911C46.7501 58.4311 46.6501 58.7011 46.4601 58.8311C46.2601 58.9611 45.96 58.9311 45.76 59.0611C45.56 59.1911 45.5 59.5511 45.3 59.6711C45.1 59.7911 44.71 59.5911 44.5 59.7111C44.29 59.8311 44.1701 60.0911 43.9601 60.2011C43.7501 60.3111 43.61 60.5711 43.4 60.6811C43.19 60.7911 42.98 60.9111 42.76 61.0111C42.55 61.1111 42.3101 61.1711 42.0901 61.2611C41.8701 61.3611 41.6501 61.4511 41.4301 61.5411C41.2101 61.6311 40.98 61.7211 40.76 61.8011C40.54 61.8811 40.2701 61.8511 40.05 61.9311C39.8 62.0211 39.5801 62.0611 39.4401 62.1811C39.2501 62.3411 39.2501 62.5811 39.2101 62.7811C39.1701 62.9811 39.0501 63.2011 39.0701 63.4211C39.0901 63.6411 39.1001 63.8511 39.0901 64.0611C39.0801 64.2811 39.0701 64.5111 38.9501 64.7011C39.1801 64.7711 39.4501 64.8711 39.6801 64.9311C39.9201 65.0011 40.18 64.9411 40.41 65.0011C40.64 65.0611 40.9 65.0511 41.13 65.1111C41.36 65.1711 41.56 65.3611 41.79 65.4311C42.02 65.5011 42.29 65.4511 42.52 65.5211C42.75 65.5911 42.92 65.8211 43.15 65.9111C43.37 65.9911 43.6301 66.0011 43.8501 66.1011C44.0701 66.2011 44.35 66.2311 44.53 66.3611C44.73 66.4911 44.6901 66.9311 44.8501 67.0811C45.0201 67.2511 45.2401 67.3411 45.3701 67.5311C45.5001 67.7311 45.6001 67.9211 45.6801 68.1411C45.7701 68.3611 45.85 68.5611 45.89 68.7911C45.93 69.0211 46.0901 69.2511 46.0801 69.4911C46.0601 69.7211 45.98 69.9611 45.91 70.1911C45.85 70.4111 45.66 70.5911 45.55 70.8011C45.44 71.0011 45.28 71.1611 45.13 71.3511C44.99 71.5311 44.8901 71.7411 44.7001 71.9011C44.5301 72.0511 44.3801 72.2511 44.1801 72.3811C43.9801 72.5111 43.6801 72.4911 43.4701 72.6211C43.2601 72.7411 43.0601 72.8811 42.8501 72.9911C42.6301 73.1011 42.38 73.1311 42.16 73.2311C41.94 73.3311 41.8401 73.7111 41.6201 73.8011C41.4001 73.8911 41.1901 74.0411 40.9601 74.1211C40.7301 74.2011 40.4301 74.0611 40.1901 74.1411C39.9601 74.2111 39.77 74.4411 39.53 74.5011C39.3 74.5611 39 74.3511 38.76 74.4011C38.52 74.4511 38.3201 74.6511 38.0801 74.6911C37.8401 74.7311 37.5901 74.6711 37.3501 74.7011C37.1101 74.7311 36.89 74.9711 36.65 74.9911C36.4 75.0111 36.14 74.8211 35.9 74.8311C35.65 74.8511 35.41 74.9111 35.17 74.9311C34.92 74.9511 34.6801 74.9311 34.4301 74.9511C34.1801 74.9711 33.9501 75.1711 33.7001 75.1811C33.4501 75.1911 33.1901 74.9211 32.9501 74.9311C32.7001 74.9411 32.4701 75.1711 32.2201 75.1911C31.9701 75.2011 31.7201 75.0111 31.4701 75.0211C31.2201 75.0311 30.99 75.3811 30.75 75.3911C30.51 75.4011 30.24 75.0411 30 75.0511C29.75 75.0611 29.52 75.2711 29.27 75.2811C29.02 75.2911 28.77 75.1411 28.53 75.1511C28.29 75.1611 28.04 75.3011 27.8 75.3111C27.56 75.3211 27.3201 75.5511 27.0701 75.5611C26.8201 75.5711 26.5601 75.1911 26.3201 75.2011C26.0801 75.2111 25.8301 75.3011 25.5801 75.3111C25.3301 75.3211 25.1001 75.5111 24.8501 75.5211C24.6001 75.5311 24.3601 75.5611 24.1101 75.5711C23.8601 75.5811 23.6101 75.4211 23.3601 75.4311C23.1101 75.4411 22.88 75.5311 22.63 75.5411C22.38 75.5511 22.14 75.4511 21.9 75.4511C21.65 75.4511 21.4 75.7411 21.16 75.7311C20.92 75.7211 20.6801 75.4711 20.4401 75.4511C20.2001 75.4311 19.9701 75.2811 19.7301 75.2511C19.4901 75.2211 19.2001 75.5211 18.9601 75.4811C18.7201 75.4411 18.4701 75.4211 18.2301 75.3711C17.9901 75.3311 17.8001 75.0111 17.5701 74.9611C17.3301 74.9111 17.12 74.7911 16.88 74.7211C16.64 74.6611 16.4 74.6511 16.16 74.5811C15.93 74.5111 15.6701 74.5311 15.4401 74.4511C15.2101 74.3711 14.9601 74.3611 14.7301 74.2711C14.5001 74.1811 14.2901 74.0511 14.0601 73.9611C13.8401 73.8711 13.64 73.7011 13.42 73.6011C13.2 73.5011 12.9101 73.5411 12.6901 73.4311C12.4701 73.3211 12.3201 73.0811 12.1101 72.9611C11.8901 72.8411 11.6401 72.7911 11.4501 72.6611C11.2401 72.5211 11.1001 72.3111 10.9401 72.1611C10.7501 71.9911 10.5001 71.9011 10.3601 71.7211C10.2101 71.5211 10.3001 71.2111 10.2201 71.0011C10.1301 70.7711 9.99011 70.6011 9.99011 70.3611C9.99011 70.1311 10.1401 69.9511 10.2101 69.7111C10.2801 69.5011 10.3301 69.3011 10.4701 69.0911C10.5901 68.9011 10.5401 68.5711 10.7101 68.3811C10.8601 68.2111 11.1601 68.1811 11.3501 68.0211C11.5201 67.8711 11.7401 67.7811 11.9401 67.6311C12.1301 67.5011 12.3501 67.4111 12.5801 67.2911C12.7901 67.1811 13.0001 67.0611 13.2401 66.9611C13.4601 66.8711 13.68 66.7611 13.92 66.6811C14.15 66.6011 14.3 66.2111 14.54 66.1511C14.78 66.0811 15.1201 66.4011 15.3601 66.3511C15.6101 66.3011 15.8 66.0011 16.05 65.9711C16.3 65.9311 16.5701 66.0411 16.8101 66.0211C17.0701 66.0011 17.31 65.7111 17.55 65.7111C17.88 65.7011 18.2301 66.0311 18.4501 66.0711ZM55.17 42.0911C54.95 42.1711 54.6601 42.4711 54.4301 42.5511C54.2101 42.6411 54.01 42.7811 53.78 42.8611C53.56 42.9511 53.2901 42.9311 53.0701 43.0211C52.8501 43.1111 52.6701 43.3011 52.4501 43.3911C52.2301 43.4811 51.9501 43.4111 51.7201 43.5011C51.5001 43.5911 51.3001 43.7311 51.0701 43.8111C50.8501 43.8911 50.6001 43.9011 50.3701 43.9911C50.1501 44.0711 49.88 44.0311 49.66 44.1011C49.43 44.1811 49.2101 44.2511 48.9801 44.3211C48.7501 44.3911 48.53 44.4611 48.3 44.5211C48.07 44.5811 47.89 44.8411 47.66 44.8911C47.43 44.9411 47.2101 45.0811 46.9801 45.1311C46.7501 45.1811 46.51 45.2311 46.28 45.2811C46.05 45.3311 45.76 45.0911 45.52 45.1411C45.29 45.1911 45.1001 45.4911 44.8701 45.5411C44.6401 45.5911 44.38 45.5211 44.15 45.5611C43.92 45.6011 43.6801 45.6711 43.4501 45.7111C43.2201 45.7511 42.9501 45.6011 42.7101 45.6411C42.4801 45.6811 42.26 45.8611 42.03 45.9011C41.79 45.9411 41.5401 45.8711 41.3101 45.9111C41.0701 45.9511 40.8401 46.0111 40.6101 46.0511C40.3701 46.0911 40.14 46.1111 39.9 46.1511C39.66 46.1911 39.4401 46.2711 39.2001 46.3011C38.9601 46.3311 38.73 46.3911 38.5 46.4311C38.26 46.4611 38.0401 46.5711 37.8 46.6011C37.56 46.6311 37.3001 46.4611 37.0601 46.5011C36.8201 46.5311 36.5901 46.6011 36.3601 46.6311C36.1201 46.6611 35.91 46.8311 35.67 46.8711C35.43 46.9011 35.2201 47.0811 34.9801 47.1111C34.7301 47.1511 34.4501 46.9211 34.2001 46.9011C33.9501 46.8811 33.7101 46.8011 33.4501 46.7611C33.2001 46.7211 32.9401 46.6711 32.6901 46.6511C32.4301 46.6211 32.1801 46.8711 31.9401 46.8911C31.7001 46.9111 31.4601 46.9011 31.2201 46.9311C30.9801 46.9611 30.7201 46.8611 30.4801 46.8911C30.2401 46.9311 29.9701 46.8011 29.7401 46.8411C29.5001 46.8811 29.3201 47.2411 29.0801 47.2811C28.8401 47.3211 28.5801 47.1911 28.3401 47.2311C28.1001 47.2711 27.88 47.4611 27.64 47.4911C27.4 47.5211 27.15 47.4911 26.91 47.5111C26.67 47.5311 26.4201 47.3411 26.1801 47.3511C25.9301 47.3611 25.6801 47.5811 25.4301 47.5811C25.1801 47.5811 24.9401 47.2911 24.6901 47.2811C24.4401 47.2711 24.1801 47.4911 23.9301 47.4711C23.6801 47.4611 23.4501 47.2111 23.2001 47.1911C22.9501 47.1711 22.6801 47.3911 22.4401 47.3711C22.1901 47.3511 21.9501 47.2811 21.7001 47.2611C21.4501 47.2411 21.2201 47.0411 20.9701 47.0211C20.7201 46.9911 20.4401 47.3211 20.1901 47.2911C19.9401 47.2611 19.7301 46.9211 19.4801 46.9011C19.2301 46.8811 18.9801 46.9311 18.7301 46.9111C18.4801 46.8911 18.2401 46.8811 17.9901 46.8511C17.7401 46.8211 17.49 46.8811 17.25 46.8611C17 46.8411 16.77 46.7111 16.52 46.6811C16.27 46.6611 16 46.8711 15.76 46.8511C15.51 46.8211 15.3101 46.4511 15.0601 46.4211C14.8101 46.3911 14.5801 46.3311 14.3301 46.3011C14.0901 46.2711 13.8301 46.3111 13.5901 46.2711C13.3501 46.2311 13.1201 46.1411 12.8701 46.0911C12.6301 46.0411 12.4 45.9411 12.16 45.8911C11.93 45.8411 11.6001 46.1511 11.3701 46.0911C11.1401 46.0311 10.9201 45.9011 10.6901 45.8411C10.4601 45.7811 10.2101 45.7611 9.9801 45.7011C9.7501 45.6311 9.51003 45.5911 9.28003 45.5311C9.05003 45.4611 8.92006 45.0511 8.69006 44.9811C8.46006 44.9111 8.14003 45.1411 7.91003 45.0711C7.68003 45.0011 7.49001 44.8111 7.26001 44.7411C7.03001 44.6711 6.78005 44.6711 6.55005 44.6011C6.32005 44.5311 6.18007 44.1911 5.95007 44.1211C5.72007 44.0511 5.48 44.0011 5.25 43.9311C5.02 43.8611 4.72011 44.0011 4.49011 43.9311C4.26011 43.8611 4.06007 43.4911 3.82007 43.4211C3.80007 43.5011 3.4601 43.9611 3.4801 44.2211C3.5001 44.4611 3.78006 44.6811 3.81006 44.9111C3.83006 45.1511 3.60001 45.4211 3.64001 45.6511C3.67001 45.8911 3.6901 46.1311 3.7301 46.3711C3.7701 46.6111 3.94011 46.8211 3.99011 47.0511C4.04011 47.2811 4.00006 47.5511 4.06006 47.7811C4.12006 48.0111 4.47005 48.1611 4.55005 48.3811C4.62005 48.6111 4.72005 48.8211 4.80005 49.0411C4.88005 49.2611 4.98008 49.4711 5.08008 49.6911C5.17008 49.9111 4.97007 50.2611 5.07007 50.4811C5.17007 50.7011 5.41002 50.8511 5.52002 51.0611C5.63002 51.2711 5.66003 51.5311 5.78003 51.7411C5.90003 51.9511 6.20007 52.0511 6.32007 52.2511C6.45007 52.4511 6.48011 52.7211 6.61011 52.9211C6.75011 53.1211 7.06008 53.1811 7.21008 53.3711C7.35008 53.5611 7.31008 53.9011 7.46008 54.0811C7.61008 54.2611 7.96012 54.2811 8.12012 54.4611C8.28012 54.6411 8.43009 54.8211 8.59009 54.9911C8.75009 55.1611 8.78007 55.4711 8.95007 55.6411C9.12007 55.8111 9.2 56.0711 9.38 56.2411C9.56001 56.4011 9.9201 56.3611 10.1001 56.5211C10.2801 56.6811 10.5001 56.7811 10.6801 56.9311C10.8701 57.0811 11.06 57.2211 11.25 57.3611C11.44 57.5111 11.56 57.7311 11.76 57.8711C11.96 58.0111 12.21 58.0611 12.41 58.1911C12.61 58.3211 12.6501 58.7011 12.8501 58.8211C13.0501 58.9411 13.35 58.9211 13.55 59.0411C13.76 59.1611 14.0001 59.2111 14.2101 59.3211C14.4201 59.4311 14.6101 59.5811 14.8201 59.6811C15.0401 59.7811 15.17 60.0711 15.39 60.1711C15.61 60.2611 15.95 60.0711 16.17 60.1511C16.39 60.2411 16.4901 60.6511 16.7201 60.7311C16.9401 60.8111 17.29 60.5311 17.52 60.6011C17.75 60.6711 17.9 60.9811 18.13 61.0411C18.36 61.1011 18.5901 61.1811 18.8201 61.2411C19.0501 61.3011 19.3401 61.1011 19.5701 61.1511C19.8001 61.2011 20.03 61.2711 20.26 61.3111C20.49 61.3511 20.7001 61.5711 20.9301 61.6011C21.1601 61.6411 21.4 61.6711 21.64 61.7011C21.88 61.7311 22.1301 61.6311 22.3601 61.6511C22.6001 61.6711 22.8201 61.8111 23.0601 61.8311C23.3001 61.8511 23.54 61.8511 23.77 61.8611C24.01 61.8711 24.2501 61.9711 24.4901 61.9711C24.7301 61.9711 24.9701 61.7611 25.2101 61.7611C25.4501 61.7611 25.68 61.8611 25.92 61.8511C26.16 61.8511 26.4 61.9211 26.63 61.9111C26.87 61.9011 27.1101 61.9411 27.3401 61.9311C27.5801 61.9211 27.8 61.6011 28.03 61.5911C28.27 61.5811 28.52 61.8011 28.75 61.7811C28.99 61.7611 29.2301 61.7711 29.4601 61.7511C29.7001 61.7311 29.91 61.4511 30.14 61.4311C30.38 61.4111 30.6201 61.4811 30.8501 61.4511C31.0901 61.4211 31.3301 61.4811 31.5601 61.4511C31.7901 61.4211 32.06 61.5611 32.29 61.5311C32.52 61.4911 32.7001 61.1411 32.9401 61.1011C33.1701 61.0611 33.42 61.1111 33.66 61.0611C33.89 61.0111 34.1101 60.8911 34.3401 60.8411C34.5701 60.7811 34.8 60.7311 35.03 60.6711C35.26 60.6111 35.4601 60.4511 35.6801 60.3811C35.9101 60.3111 36.1501 60.3111 36.3701 60.2311C36.5901 60.1611 36.79 60.0011 37.01 59.9211C37.23 59.8411 37.4701 59.7911 37.6901 59.7011C37.9101 59.6111 38.2101 59.7211 38.4301 59.6311C38.6501 59.5411 38.8501 59.4011 39.0701 59.3111C39.2901 59.2211 39.4901 59.0811 39.7101 58.9811C39.9301 58.8811 40.1501 58.7911 40.3601 58.6911C40.5801 58.5911 40.7401 58.3911 40.9601 58.2811C41.1701 58.1811 41.4801 58.2611 41.7001 58.1511C41.9101 58.0411 42.0301 57.7611 42.2401 57.6511C42.4501 57.5411 42.7801 57.6511 42.9901 57.5311C43.2001 57.4111 43.3501 57.2011 43.5601 57.0811C43.7701 56.9611 43.9901 56.8711 44.2001 56.7411C44.4001 56.6111 44.6401 56.5311 44.8401 56.4011C45.0401 56.2711 45.08 55.9111 45.28 55.7711C45.48 55.6311 45.83 55.7211 46.02 55.5811C46.21 55.4411 46.2901 55.1411 46.4801 54.9911C46.6701 54.8511 46.97 54.8411 47.15 54.6911C47.34 54.5411 47.4001 54.2511 47.5801 54.0911C47.7601 53.9411 48.08 53.9311 48.25 53.7711C48.43 53.6111 48.4101 53.2411 48.5901 53.0811C48.7601 52.9211 49.1401 52.9611 49.3101 52.7911C49.4801 52.6211 49.46 52.2711 49.63 52.1011C49.79 51.9311 49.98 51.7811 50.14 51.6011C50.3 51.4211 50.6 51.3611 50.75 51.1811C50.91 51.0011 50.9601 50.7311 51.1101 50.5411C51.2601 50.3511 51.27 50.0611 51.42 49.8711C51.56 49.6811 51.88 49.6111 52.02 49.4211C52.16 49.2211 52.1901 48.9511 52.3201 48.7511C52.4501 48.5511 52.64 48.3911 52.77 48.1811C52.89 47.9711 52.9501 47.7311 53.0701 47.5211C53.1901 47.3111 53.4901 47.2011 53.6001 46.9911C53.7101 46.7811 53.8301 46.5611 53.9301 46.3411C54.0301 46.1211 53.81 45.7711 53.9 45.5511C53.99 45.3311 54.08 45.1211 54.16 44.8911C54.24 44.6711 54.3501 44.4611 54.4301 44.2311C54.5001 44.0011 54.8001 43.8411 54.8701 43.6111C54.9301 43.3811 54.7701 43.0911 54.8201 42.8611C54.8501 42.6511 55.12 42.3311 55.17 42.0911ZM21.8501 31.8411C21.7001 31.9811 21.48 32.6311 21.16 32.7011C20.93 32.7511 20.72 32.8611 20.5 32.9211C20.27 32.9711 20.02 32.9111 19.8 32.9611C19.57 33.0111 19.37 33.1711 19.14 33.2211C18.91 33.2711 18.6501 33.1611 18.4301 33.2111C18.2001 33.2611 17.99 33.3611 17.76 33.4111C17.53 33.4611 17.2901 33.4311 17.0601 33.4811C16.8301 33.5311 16.5801 33.4511 16.3501 33.5011C16.1201 33.5511 15.9 33.6011 15.67 33.6511C15.44 33.7011 15.2201 33.7611 14.9901 33.8111C14.7601 33.8611 14.5901 34.1211 14.3601 34.1811C14.1301 34.2311 13.9301 34.3711 13.7101 34.4311C13.4901 34.4911 13.26 34.5511 13.04 34.6111C12.82 34.6711 12.52 34.4511 12.29 34.5211C12.07 34.5811 11.9201 34.9111 11.7001 34.9811C11.4801 35.0511 11.23 35.0211 11.01 35.0911C10.79 35.1711 10.5801 35.2711 10.3701 35.3511C10.1501 35.4311 9.87002 35.3411 9.65002 35.4311C9.44002 35.5211 9.28007 35.7411 9.07007 35.8411C8.86007 35.9311 8.60001 35.9411 8.39001 36.0411C8.18001 36.1411 7.98003 36.2711 7.78003 36.3711C7.57003 36.4811 7.36003 36.5711 7.16003 36.6811C6.96003 36.7911 6.77007 36.9411 6.57007 37.0611C6.37007 37.1711 6.1801 37.3111 5.9801 37.4311C5.7801 37.5511 5.62004 37.7311 5.42004 37.8511C5.20004 37.9911 4.88009 37.9611 4.72009 38.1011C4.52009 38.2711 4.36 38.4911 4.25 38.6711C4.11 38.8911 4.17003 39.1611 4.16003 39.3911C4.15003 39.6111 4.33005 39.7611 4.43005 40.0011C4.51005 40.2011 4.43008 40.5011 4.58008 40.7111C4.71008 40.8911 4.83 41.1011 5 41.2911C5.16 41.4711 5.33 41.6511 5.5 41.8111C5.68 41.9711 6.02008 41.9211 6.21008 42.0611C6.40008 42.2011 6.57002 42.3611 6.77002 42.4811C6.98002 42.6011 7.12008 42.8311 7.33008 42.9311C7.55008 43.0311 7.71006 43.2711 7.94006 43.3511C8.16006 43.4311 8.49009 43.1811 8.72009 43.2411C8.95009 43.3011 9.14001 43.5111 9.38 43.5511C9.62 43.5911 9.88012 43.4711 10.1201 43.5211C10.3501 43.5711 10.5801 43.6711 10.8201 43.7211C11.0501 43.7711 11.2501 44.0111 11.4801 44.0611C11.7101 44.1111 11.9901 43.9411 12.2301 43.9911C12.4701 44.0411 12.65 44.3611 12.88 44.4111C13.12 44.4511 13.39 44.2711 13.63 44.3111C13.87 44.3511 14.0701 44.6111 14.3101 44.6411C14.5501 44.6711 14.81 44.4611 15.05 44.4811C15.29 44.5011 15.52 44.5611 15.76 44.5611C15.99 44.5711 16.2301 44.7411 16.4601 44.7411C16.6901 44.7411 16.92 44.3911 17.16 44.3811C17.39 44.3711 17.64 44.6811 17.88 44.6711C18.11 44.6611 18.3501 44.5611 18.5801 44.5311C18.8101 44.5111 19.05 44.4711 19.28 44.4411C19.51 44.4111 19.7301 44.3011 19.9601 44.2611C20.1901 44.2211 20.44 44.2811 20.67 44.2311C20.9 44.1811 21.07 43.8811 21.29 43.8211C21.52 43.7611 21.8401 44.0211 22.0601 43.9411C22.2901 43.8611 22.53 43.8211 22.76 43.7511C23 43.6811 23.2101 43.5511 23.4501 43.5011C23.6901 43.4511 23.9401 43.4511 24.1801 43.4111C24.4201 43.3711 24.67 43.3911 24.91 43.3611C25.15 43.3311 25.3601 42.9311 25.6101 42.9111C25.8501 42.8911 26.1101 42.9511 26.3501 42.9411C26.5901 42.9311 26.8401 42.8711 27.0901 42.8611C27.3401 42.8511 27.5801 42.8211 27.8301 42.8211C28.0801 42.8211 28.3201 43.1711 28.5701 43.1711C28.8201 43.1711 29.0601 42.8511 29.3101 42.8511C29.5601 42.8511 29.8 42.9711 30.04 42.9711C30.29 42.9711 30.53 42.8911 30.77 42.8911C31.01 42.8911 31.26 43.1611 31.51 43.1511C31.75 43.1411 31.9901 43.1211 32.2301 43.1411C32.4701 43.1611 32.7401 42.9611 32.9901 43.0011C33.2301 43.0411 33.42 43.3811 33.66 43.4311C33.9 43.4811 34.14 43.5011 34.38 43.5611C34.62 43.6211 34.92 43.4111 35.16 43.4711C35.4 43.5311 35.5801 43.8411 35.8201 43.8911C36.0601 43.9411 36.3 44.0211 36.54 44.0611C36.74 44.1011 36.96 44.0011 37.17 44.0211C37.37 44.0411 37.57 44.1611 37.77 44.1711C37.97 44.1811 38.2 43.9011 38.4 43.9211C38.68 43.9511 38.9701 43.9611 39.2401 44.0011C39.5201 44.0411 39.76 44.0611 40.03 44.1011C40.2 43.9911 40.5201 44.1211 40.7401 43.9711C40.9401 43.8311 41.07 43.6011 41.3 43.5311C41.5401 43.4711 41.8101 43.5111 42.0601 43.4511C42.3001 43.3911 42.5 43.1411 42.75 43.0811C43 43.0211 43.27 43.0911 43.51 43.0411C43.76 42.9811 43.9501 42.7211 44.2001 42.6611C44.4501 42.6111 44.7501 42.7911 44.9901 42.7311C45.2401 42.6711 45.42 42.3711 45.67 42.3111C45.92 42.2511 46.16 42.2011 46.4 42.1411C46.64 42.0811 46.9401 42.2111 47.1801 42.1411C47.4201 42.0711 47.7001 42.1311 47.9501 42.0611C48.1901 41.9911 48.3501 41.6511 48.5901 41.5711C48.8101 41.4911 49.0101 41.3611 49.2301 41.2811C49.4501 41.2011 49.6601 41.1011 49.8701 41.0111C50.0901 40.9211 50.34 40.9311 50.55 40.8311C50.76 40.7311 50.93 40.5411 51.14 40.4411C51.35 40.3411 51.69 40.4911 51.9 40.3911C52.11 40.2811 52.2401 40.0211 52.4401 39.9111C52.6501 39.8011 52.82 39.6311 53.02 39.5111C53.22 39.3911 53.45 39.3211 53.66 39.2111C53.86 39.0911 54.1701 39.1611 54.3701 39.0411C54.5901 38.9111 54.6 38.5111 54.77 38.3311C54.95 38.1411 55.38 38.1411 55.5 37.9211C55.62 37.6911 55.35 37.3311 55.39 37.0911C55.44 36.8411 55.68 36.6011 55.65 36.3611C55.61 36.1111 55.53 35.8411 55.4 35.6211C55.27 35.4111 54.9301 35.4111 54.7101 35.2611C54.5301 35.1311 54.36 34.9811 54.17 34.8511C53.98 34.7211 53.8901 34.4511 53.7001 34.3311C53.5101 34.2111 53.3101 34.0911 53.1201 33.9811C52.9201 33.8711 52.6601 33.8811 52.4601 33.7811C52.2601 33.6811 52.1 33.4811 51.89 33.3911C51.68 33.3011 51.46 33.2411 51.25 33.1711C51.03 33.1011 50.8301 32.9511 50.6101 32.9111C50.3701 32.8611 50.1001 33.0211 49.8601 32.9811C49.6201 32.9411 49.41 32.7911 49.17 32.7511C48.93 32.7111 48.7101 32.5911 48.4701 32.5511C48.2301 32.5111 48 32.4311 47.76 32.4011C47.52 32.3611 47.24 32.6411 47 32.6011C46.76 32.5611 46.5601 32.3011 46.3201 32.2711C46.0801 32.2411 45.8501 32.1811 45.6101 32.1511C45.3701 32.1211 45.1001 32.3511 44.8701 32.3211C44.6301 32.2911 44.41 32.1711 44.17 32.1411C43.93 32.1111 43.7001 32.0011 43.4601 31.9711C43.2201 31.9411 43 31.7411 42.76 31.7111C42.52 31.6911 42.25 31.9711 42.01 31.9511C41.77 31.9311 41.5401 31.8011 41.3 31.7711C41.07 31.7511 40.8301 31.7911 40.5901 31.7711C40.3601 31.7511 40.12 31.7311 39.89 31.7111C39.66 31.6911 39.4201 31.7711 39.1801 31.7511C38.9501 31.7311 38.7201 31.6511 38.4801 31.6411C38.2501 31.6311 38.01 31.6911 37.77 31.6811C37.54 31.6711 37.3001 31.6211 37.0701 31.6111C36.8401 31.6011 36.6101 31.3811 36.3701 31.3711C36.1401 31.3611 35.9 31.4111 35.66 31.4011C35.43 31.4011 35.1901 31.4411 34.9501 31.4411C34.7201 31.4411 34.48 31.4311 34.25 31.4311C34.01 31.4311 33.78 31.5411 33.55 31.5511C33.32 31.5511 33.0801 31.3411 32.8401 31.3511C32.6101 31.3511 32.38 31.5511 32.14 31.5611C31.91 31.5711 31.6601 31.3211 31.4301 31.3311C31.2001 31.3411 30.9601 31.4511 30.7301 31.4611C30.5001 31.4711 30.26 31.4411 30.02 31.4511C29.79 31.4611 29.5501 31.4211 29.3101 31.4411C29.0801 31.4611 28.86 31.7511 28.63 31.7711C28.4 31.7911 28.14 31.5311 27.91 31.5511C27.68 31.5711 27.4601 31.7911 27.2301 31.8111C27.0001 31.8311 26.74 31.6811 26.51 31.7011C26.28 31.7211 26.0601 31.9311 25.8301 31.9611C25.6001 31.9911 25.3401 31.8111 25.1101 31.8411C24.8801 31.8711 24.6801 32.1811 24.4501 32.2111C24.2501 32.2411 24.0101 31.9811 23.8101 32.0111C23.6101 32.0411 23.45 32.3311 23.25 32.3611C23.05 32.3911 22.84 32.3711 22.64 32.3811C22.4 32.4311 22.1401 31.9811 21.8501 31.8411ZM35.54 66.9811C35.54 66.7111 35.3201 66.3511 35.3201 66.1011C35.3201 65.8311 35.26 65.5711 35.26 65.3211C35.26 65.0511 35.3701 64.7911 35.3701 64.5511C35.3701 64.2711 35.3101 64.1311 35.3101 63.9011C35.0601 63.9111 34.9301 63.8011 34.6801 63.8111C34.4301 63.8211 34.1901 63.8911 33.9401 63.9011C33.6901 63.9111 33.4401 63.8411 33.2001 63.8511C32.9501 63.8611 32.7001 63.7411 32.4601 63.7511C32.2101 63.7611 31.9701 63.7711 31.7201 63.7811C31.4701 63.7911 31.2301 63.8111 30.9801 63.8211C30.7301 63.8311 30.5 64.0511 30.25 64.0611C30 64.0711 29.76 64.1711 29.52 64.1811C29.27 64.1911 29.03 64.2011 28.78 64.2111C28.53 64.2211 28.28 63.9411 28.03 63.9511C27.78 63.9611 27.5501 64.2411 27.3101 64.2511C27.0701 64.2611 26.8201 64.1711 26.5701 64.1811C26.3301 64.1911 26.0801 64.2311 25.8401 64.2411C25.6001 64.2511 25.3401 64.0711 25.1001 64.0911C24.8601 64.1111 24.6201 64.2611 24.3701 64.2711C24.1301 64.2811 23.88 64.1911 23.63 64.2011C23.39 64.2111 23.14 64.2611 22.9 64.2711C22.66 64.2811 22.41 64.2911 22.17 64.3011C22.15 64.3011 22.1101 64.6311 22.1001 65.0011C22.0901 65.1911 22.1101 65.4211 22.1201 65.6511C22.1301 65.8711 22.2101 66.0811 22.2401 66.2911C22.2701 66.5211 22.11 66.7911 22.17 66.9811C22.22 67.1211 22.58 67.2411 22.91 67.2911C23.13 67.3211 23.39 67.2011 23.64 67.2211C23.9 67.2411 24.17 67.1111 24.38 67.1411C24.63 67.1811 24.8401 67.4311 25.0801 67.4611C25.3301 67.4911 25.5701 67.5511 25.8201 67.5711C26.0701 67.5911 26.3201 67.6211 26.5601 67.6311C26.8101 67.6411 27.0601 67.3911 27.3101 67.4011C27.5601 67.4011 27.8 67.4411 28.05 67.4411C28.3 67.4411 28.55 67.5711 28.79 67.5611C29.04 67.5511 29.29 67.7111 29.54 67.6911C29.79 67.6811 30.01 67.3411 30.26 67.3211C30.51 67.3011 30.76 67.4511 31.01 67.4311C31.26 67.4111 31.4801 67.2211 31.7301 67.1911C31.9701 67.1611 32.2201 67.1911 32.4701 67.1611C32.7101 67.1311 32.9801 67.3011 33.2301 67.2711C33.4701 67.2411 33.6901 66.9911 33.9401 66.9611C34.1801 66.9311 34.4701 67.1711 34.7101 67.1411C34.9601 67.1211 35.3 67.0211 35.54 66.9811Z" fill="#4A4A4A"/>
<path d="M29 0.781091C29.02 1.02109 29.23 1.13109 29.25 1.38109C29.27 1.62109 29.39 1.85109 29.41 2.09109C29.43 2.33109 29.15 2.60109 29.17 2.84109C29.19 3.08109 29.4701 3.30109 29.4901 3.54109C29.5101 3.78109 29.51 4.02109 29.53 4.26109C29.55 4.50109 29.37 4.76109 29.39 5.00109C29.41 5.24109 29.7101 5.46109 29.7401 5.70109C29.7601 5.94109 29.73 6.19109 29.76 6.43109C29.78 6.67109 29.79 6.91109 29.81 7.15109C29.83 7.39109 29.5901 7.65109 29.6101 7.89109C29.6301 8.13109 29.8301 8.35109 29.8501 8.59109C29.8701 8.83109 30.02 9.06109 30.05 9.30109C30.08 9.54109 29.9 9.80109 29.93 10.0411C29.95 10.2811 29.91 10.5311 29.93 10.7611C29.95 11.0011 29.98 11.2411 30 11.4811C30.02 11.7211 30.0601 11.9611 30.0801 12.2011C30.1001 12.4411 30.13 12.6811 30.15 12.9211C30.17 13.1611 30.16 13.4011 30.18 13.6411C30.2 13.8611 30.52 14.0811 30.51 14.3011C30.5 14.5311 30.2801 14.7411 30.2101 14.9311C30.1301 15.1411 30.07 15.3811 29.89 15.5211C29.73 15.6411 29.4801 15.6211 29.2301 15.6611C29.0101 15.7011 28.8201 15.5611 28.5901 15.5111C28.3701 15.4711 28.13 15.5311 27.92 15.4311C27.71 15.3311 27.5101 15.2211 27.3401 15.0811C27.1601 14.9211 27.0801 14.7011 26.9601 14.5211C26.8301 14.3111 26.6301 14.1511 26.6101 13.9411C26.5901 13.7011 26.78 13.4411 26.76 13.1911C26.74 12.9511 26.45 12.7211 26.43 12.4811C26.41 12.2411 26.43 11.9911 26.41 11.7511C26.39 11.5111 26.5101 11.2511 26.4901 11.0111C26.4701 10.7711 26.3701 10.5311 26.3501 10.2911C26.3301 10.0511 26.22 9.81109 26.2 9.57109C26.18 9.33109 26.27 9.08109 26.25 8.83109C26.23 8.58109 26.0901 8.35109 26.0801 8.11109C26.0601 7.87109 26.07 7.62109 26.06 7.38109C26.04 7.14109 26.16 6.89109 26.14 6.64109C26.12 6.39109 25.9 6.17109 25.88 5.92109C25.86 5.69109 26.15 5.43109 26.13 5.20109C26.11 4.97109 26.19 4.73109 26.17 4.49109C26.15 4.26109 25.7501 4.05109 25.7301 3.82109C25.7101 3.59109 25.8801 3.34109 25.8701 3.11109C25.8601 2.88109 25.79 2.64109 25.78 2.41109C25.77 2.18109 25.77 1.94109 25.76 1.71109C25.76 1.41109 25.6801 1.11109 25.7301 0.901092C25.8101 0.611092 26.1401 0.491092 26.3401 0.361092C26.5301 0.241092 26.75 -0.0189086 27.06 0.00109137C27.28 0.0110914 27.49 0.351092 27.77 0.431092C27.99 0.501092 28.22 0.561091 28.45 0.621091C28.65 0.671091 28.76 0.721091 29 0.781091Z" fill="#4A4A4A"/>
<path d="M21.55 16.6311C21.3 16.6211 21.12 16.4711 20.9 16.4311C20.66 16.3911 20.41 16.4611 20.2 16.3911C19.97 16.3111 19.6901 16.3511 19.4901 16.2511C19.2801 16.1411 19.12 15.9311 18.94 15.7911C18.76 15.6511 18.7501 15.3311 18.5901 15.1611C18.4301 14.9911 18.17 14.9211 18.03 14.7311C17.9 14.5411 17.5901 14.4511 17.4701 14.2511C17.3501 14.0511 17.39 13.7611 17.28 13.5511C17.17 13.3311 16.94 13.1711 16.83 12.9511C16.72 12.7311 16.6101 12.5111 16.4901 12.2911C16.3701 12.0711 16.4901 11.7311 16.3701 11.5111C16.2501 11.2911 16.19 11.0411 16.07 10.8311C15.95 10.6111 15.4901 10.5911 15.3701 10.3711C15.2501 10.1511 15.16 9.92112 15.04 9.71112C14.92 9.49112 14.9801 9.18112 14.8501 8.96112C14.7301 8.75112 14.68 8.49112 14.56 8.28112C14.44 8.07112 14.1201 7.96112 13.9901 7.75112C13.8601 7.54112 13.95 7.20112 13.83 6.99112C13.71 6.78112 13.64 6.53112 13.51 6.32112C13.38 6.11112 13.02 6.03112 12.89 5.82112C12.77 5.61112 12.79 5.31112 12.67 5.09112C12.55 4.88112 12.3601 4.70112 12.2301 4.49112C12.1101 4.28112 11.88 4.12112 11.76 3.90112C11.59 3.59112 11.41 3.37112 11.39 3.17112C11.37 2.98112 11.51 2.73112 11.64 2.39112C11.71 2.21112 11.84 1.93112 11.96 1.65112C12.22 1.66112 12.5001 1.93112 12.7301 1.98112C12.9801 2.03112 13.2601 1.94112 13.4701 2.03112C13.7001 2.13112 13.86 2.34112 14.06 2.48112C14.26 2.62112 14.61 2.60112 14.78 2.77112C14.95 2.94112 15 3.24112 15.16 3.44112C15.31 3.63112 15.6001 3.74112 15.7301 3.95112C15.8601 4.16112 15.9 4.43112 16.02 4.65112C16.14 4.86112 16.14 5.15112 16.25 5.37112C16.36 5.58112 16.55 5.74112 16.66 5.95112C16.77 6.16112 16.8 6.41112 16.91 6.62112C17.02 6.83112 17.27 6.95112 17.39 7.16112C17.51 7.36112 17.68 7.53112 17.8 7.73112C17.92 7.93112 17.9 8.21112 18.02 8.41112C18.14 8.61112 18.41 8.73112 18.53 8.93112C18.65 9.13112 18.57 9.45112 18.68 9.65112C18.8 9.85112 19.1101 9.94112 19.2301 10.1411C19.3501 10.3411 19.46 10.5511 19.58 10.7511C19.7 10.9511 19.8701 11.1211 19.9901 11.3311C20.1101 11.5311 20.03 11.8511 20.15 12.0511C20.27 12.2511 20.58 12.3411 20.7 12.5511C20.82 12.7611 20.94 12.9811 21.06 13.1911C21.18 13.4011 21.18 13.6811 21.29 13.9011C21.4 14.1211 21.59 14.3111 21.69 14.5311C21.78 14.7611 21.89 14.9911 21.96 15.2211C22.04 15.4311 21.9201 15.7511 21.8401 16.0011C21.8101 16.2511 21.6 16.4311 21.55 16.6311Z" fill="#4A4A4A"/>
<path d="M34 14.6111C34.18 14.4111 34.35 14.1711 34.51 13.9911C34.69 13.7911 35.0301 13.7711 35.1901 13.5911C35.3601 13.4011 35.4101 13.1111 35.5801 12.9311C35.7501 12.7411 35.8901 12.5711 36.0601 12.3811C35.8401 12.2411 35.4901 12.0911 35.1101 11.8411C35.2101 11.6211 35.56 11.4311 35.67 11.2211C35.77 11.0011 35.6001 10.6511 35.7001 10.4411C35.8001 10.2211 36.2 10.1411 36.3 9.9311C36.4 9.7111 36.3701 9.4311 36.4701 9.2211C36.5701 9.0011 36.54 8.7211 36.65 8.5111C36.75 8.2911 37.1101 8.2011 37.2201 7.9811C37.3201 7.7611 37.3601 7.5211 37.4701 7.3011C37.5701 7.0811 37.3901 6.7311 37.4901 6.5111C37.5901 6.2911 37.9901 6.2111 38.0901 6.0011C38.1901 5.7911 38.1301 5.4911 38.2301 5.2711C38.3301 5.0511 38.4701 4.8511 38.5801 4.6411C38.6801 4.4211 38.7 4.1711 38.8 3.9511C38.9 3.7311 39.15 3.5911 39.25 3.3711C39.35 3.1511 39.4901 2.9511 39.5901 2.7411C39.6901 2.5311 39.8401 2.3311 39.9401 2.1111C40.0401 1.9111 39.9 1.5711 40.02 1.4011C40.16 1.2111 40.5201 1.3311 40.7001 1.2511C40.8801 1.1811 41.06 0.901098 41.3 0.991098C41.46 1.0511 41.59 1.2911 41.79 1.4511C41.94 1.5811 42.1201 1.6711 42.3301 1.7311C42.5101 1.7811 42.7401 1.7011 42.9501 1.7411C43.1401 1.7811 43.2801 1.9311 43.4901 1.9911C43.3901 2.2111 43.2201 2.3611 43.1201 2.5711C43.0201 2.7911 42.9501 3.0111 42.8501 3.2311C42.7501 3.4511 42.62 3.6411 42.51 3.8611C42.41 4.0711 42.48 4.3711 42.38 4.5811C42.28 4.7911 41.98 4.9111 41.88 5.1311C41.78 5.3411 41.7201 5.5811 41.6201 5.7911C41.5201 6.0011 41.6701 6.3311 41.5701 6.5511C41.4701 6.7711 41.37 6.9811 41.28 7.1911C41.18 7.4011 40.76 7.4711 40.67 7.6911C40.57 7.9111 40.5901 8.1811 40.4901 8.3911C40.3901 8.6111 40.25 8.8111 40.15 9.0211C40.05 9.2411 40 9.4811 39.91 9.6911C39.81 9.9111 39.6901 10.1111 39.6001 10.3311C39.5001 10.5511 39.4401 10.7811 39.3401 11.0011C39.2401 11.2211 39.13 11.4311 39.04 11.6511C38.95 11.8711 38.84 12.0811 38.75 12.3011C38.66 12.5211 38.5201 12.7211 38.4301 12.9411C38.3401 13.1611 38.4101 13.4511 38.3301 13.6711C38.2401 13.8911 38.0601 14.0711 37.9701 14.3011C37.8601 14.5811 37.75 14.8011 37.65 14.9911C37.5 15.2711 37.35 15.3911 37.16 15.4911C36.96 15.6011 36.82 15.5711 36.51 15.5111C36.3 15.4711 35.9701 15.6911 35.6901 15.5811C35.5101 15.5111 35.34 15.3611 35.15 15.2611C34.98 15.1711 34.8001 15.0811 34.6001 14.9711C34.4101 14.8811 34.2 14.7111 34 14.6111Z" fill="#4A4A4A"/>
</svg>
